<?xml version="1.0" encoding="utf-8"?>
<!-- Generator: Adobe Illustrator 16.0.0, SVG Export Plug-In . SVG Version: 6.00 Build 0)  -->
<!DOCTYPE svg PUBLIC "-//W3C//DTD SVG 1.1//EN" "http://www.w3.org/Graphics/SVG/1.1/DTD/svg11.dtd">
<svg version="1.1" id="Layer_1" xmlns="http://www.w3.org/2000/svg" xmlns:xlink="http://www.w3.org/1999/xlink" x="0px" y="0px"
	 width="416.663px" height="118.162px" viewBox="88.362 379.186 416.663 118.162"
	 enable-background="new 88.362 379.186 416.663 118.162" xml:space="preserve">
<g>
	<g>
		<polygon fill="#EF3B2D" points="248.34,388.361 237.845,388.361 237.845,452.243 268.051,452.243 268.051,442.844 248.34,442.844 
					"/>
		<path fill="#EF3B2D" d="M305.101,415.466c-1.34-2.13-3.24-3.802-5.703-5.02c-2.464-1.217-4.944-1.825-7.438-1.825
			c-3.226,0-6.176,0.594-8.853,1.779c-2.678,1.187-4.974,2.815-6.891,4.883c-1.916,2.068-3.408,4.457-4.471,7.163
			c-1.066,2.708-1.597,5.554-1.597,8.533c0,3.043,0.531,5.902,1.597,8.578c1.063,2.679,2.555,5.052,4.471,7.119
			c1.917,2.068,4.212,3.695,6.891,4.882c2.676,1.186,5.626,1.779,8.853,1.779c2.494,0,4.974-0.608,7.438-1.824
			c2.463-1.217,4.365-2.89,5.703-5.02v5.75h9.947v-42.527h-9.947V415.466z M304.189,436.181c-0.609,1.643-1.461,3.072-2.555,4.289
			c-1.096,1.217-2.42,2.19-3.971,2.92c-1.552,0.73-3.271,1.096-5.157,1.096c-1.886,0-3.59-0.365-5.111-1.096
			s-2.829-1.703-3.923-2.92c-1.096-1.217-1.933-2.646-2.51-4.289c-0.58-1.643-0.867-3.377-0.867-5.202s0.288-3.56,0.867-5.201
			c0.577-1.643,1.414-3.071,2.51-4.289c1.095-1.217,2.403-2.19,3.923-2.921c1.521-0.73,3.225-1.095,5.111-1.095
			c1.885,0,3.605,0.364,5.157,1.095c1.551,0.73,2.875,1.704,3.971,2.921c1.094,1.218,1.945,2.646,2.555,4.289
			c0.607,1.642,0.912,3.376,0.912,5.201S304.796,434.539,304.189,436.181z"/>
		<path fill="#EF3B2D" d="M385.957,415.466c-1.34-2.13-3.24-3.802-5.703-5.02c-2.465-1.217-4.943-1.825-7.438-1.825
			c-3.227,0-6.176,0.594-8.854,1.779c-2.678,1.187-4.973,2.815-6.891,4.883c-1.916,2.068-3.406,4.457-4.471,7.163
			c-1.066,2.708-1.598,5.554-1.598,8.533c0,3.043,0.531,5.902,1.598,8.578c1.064,2.679,2.555,5.052,4.471,7.119
			c1.918,2.068,4.213,3.695,6.891,4.882c2.676,1.186,5.627,1.779,8.854,1.779c2.494,0,4.973-0.608,7.438-1.824
			c2.463-1.217,4.365-2.89,5.703-5.02v5.75h9.947v-42.527h-9.947V415.466z M385.044,436.181c-0.609,1.643-1.461,3.072-2.557,4.289
			c-1.094,1.217-2.418,2.19-3.969,2.92c-1.553,0.73-3.271,1.096-5.156,1.096c-1.887,0-3.592-0.365-5.111-1.096
			c-1.521-0.73-2.828-1.703-3.924-2.92s-1.932-2.646-2.51-4.289c-0.58-1.643-0.867-3.377-0.867-5.202s0.287-3.56,0.867-5.201
			c0.576-1.643,1.414-3.071,2.51-4.289c1.096-1.217,2.402-2.19,3.924-2.921c1.52-0.73,3.225-1.095,5.111-1.095
			c1.885,0,3.604,0.364,5.156,1.095c1.551,0.73,2.875,1.704,3.969,2.921c1.096,1.218,1.947,2.646,2.557,4.289
			c0.607,1.642,0.912,3.376,0.912,5.201S385.652,434.539,385.044,436.181z"/>
		<rect x="495.078" y="388.361" fill="#EF3B2D" width="9.947" height="63.882"/>
		<polygon fill="#EF3B2D" points="322.896,452.243 332.843,452.243 332.843,419.504 349.91,419.504 349.91,409.717 322.896,409.717 
					"/>
		<polygon fill="#EF3B2D" points="435.783,409.717 423.281,442.282 410.779,409.717 400.705,409.717 417.031,452.243 
			429.531,452.243 445.859,409.717 		"/>
		<path fill="#EF3B2D" d="M467.552,408.623c-12.18,0-21.82,10.01-21.82,22.357c0,13.649,9.33,22.357,23.096,22.357
			c7.705,0,12.623-2.945,18.633-9.361l-6.721-5.199c-0.004,0.005-5.072,6.659-12.641,6.659c-8.795,0-12.498-7.092-12.498-10.761h33
			C490.333,420.627,481.097,408.623,467.552,408.623z M455.626,427.284c0.076-0.818,1.223-10.761,11.848-10.761
			s11.916,9.941,11.99,10.761H455.626z"/>
	</g>
</g>
<g>
	<path d="M242.859,491.856l-4.003-17.099h1.721l3.405,14.575l3.667-13.116h1.235l4.228,13.191c0.398-2.184,0.748-4.042,1.047-5.574
		c0.299-1.531,0.542-2.818,0.729-3.859c0.188-1.042,0.331-1.928,0.431-2.656c0.099-0.728,0.149-1.381,0.149-1.958v-0.603h1.833
		c-0.275,1.934-0.58,3.849-0.917,5.743c-0.337,1.896-0.705,3.785-1.104,5.668c-0.399,1.884-0.836,3.779-1.31,5.688h-1.833
		l-3.891-12.429l-3.667,12.429H242.859z"/>
	<path d="M269.499,492.156c-1.323,0-2.526-0.2-3.611-0.601c-1.085-0.399-2.021-0.975-2.806-1.725
		c-0.786-0.749-1.391-1.674-1.814-2.774c-0.425-1.1-0.636-2.337-0.636-3.712c0-1.45,0.218-2.731,0.655-3.844
		c0.436-1.111,1.029-2.05,1.777-2.812c0.748-0.763,1.627-1.337,2.638-1.725s2.089-0.581,3.236-0.581c1.072,0,2.07,0.162,2.993,0.486
		s1.727,0.811,2.414,1.459c0.686,0.648,1.222,1.472,1.609,2.47c0.386,0.998,0.58,2.17,0.58,3.517c0,0.2,0,0.368,0,0.505
		c0,0.138-0.013,0.306-0.037,0.506h-14.068c0.05,1.229,0.255,2.3,0.617,3.215c0.361,0.916,0.854,1.674,1.478,2.275
		c0.623,0.603,1.366,1.054,2.226,1.354c0.861,0.301,1.79,0.451,2.788,0.451c0.773,0,1.484-0.088,2.133-0.263
		c0.648-0.174,1.241-0.43,1.777-0.767c0.536-0.337,1.029-0.729,1.478-1.179l1.16,1.011c-0.524,0.574-1.123,1.072-1.796,1.496
		c-0.674,0.425-1.41,0.736-2.208,0.936C271.281,492.055,270.421,492.156,269.499,492.156z M262.539,481.829h12.123
		c0-0.947-0.144-1.796-0.43-2.544c-0.287-0.749-0.687-1.378-1.197-1.89c-0.512-0.511-1.123-0.892-1.833-1.142
		c-0.711-0.249-1.478-0.374-2.301-0.374c-0.898,0-1.708,0.131-2.432,0.393c-0.724,0.263-1.366,0.655-1.927,1.179
		c-0.561,0.524-1.01,1.154-1.347,1.89C262.857,480.077,262.638,480.906,262.539,481.829z"/>
	<path d="M286.99,491.613c-0.836-0.361-1.541-0.823-2.114-1.385c-0.574-0.561-1.023-1.128-1.347-1.702l-0.599,3.33h-1.235v-24.881
		h1.833h0.336v0.259c-0.125,0.1-0.206,0.234-0.243,0.408c-0.037,0.173-0.056,0.469-0.056,0.889v9.631
		c0.274-0.548,0.636-1.053,1.085-1.515c0.449-0.462,0.954-0.861,1.515-1.197c0.561-0.337,1.172-0.599,1.833-0.786
		c0.661-0.188,1.34-0.28,2.039-0.28c1.047,0,2.033,0.193,2.956,0.58s1.727,0.954,2.414,1.702c0.686,0.748,1.222,1.659,1.609,2.731
		c0.386,1.072,0.58,2.308,0.58,3.704c0,1.571-0.218,2.931-0.654,4.078c-0.437,1.147-1.023,2.089-1.759,2.824
		c-0.736,0.736-1.565,1.279-2.488,1.628c-0.923,0.35-1.883,0.524-2.881,0.524C288.767,492.156,287.825,491.974,286.99,491.613z
		 M291.929,490.116c0.71-0.262,1.347-0.679,1.908-1.253c0.562-0.573,1.01-1.322,1.347-2.245s0.505-2.045,0.505-3.367
		c0-1.197-0.156-2.245-0.468-3.143c-0.313-0.898-0.743-1.652-1.291-2.264c-0.549-0.611-1.173-1.072-1.871-1.385
		c-0.699-0.312-1.435-0.468-2.208-0.468c-1.123,0-2.158,0.262-3.105,0.786c-0.948,0.523-1.715,1.328-2.301,2.413
		c-0.586,1.085-0.879,2.464-0.879,4.135c0,1.271,0.162,2.356,0.487,3.255c0.324,0.897,0.767,1.641,1.328,2.226
		c0.561,0.587,1.209,1.018,1.945,1.291c0.736,0.275,1.528,0.412,2.376,0.412C290.475,490.51,291.218,490.379,291.929,490.116z"/>
	<path d="M308.334,492.156c-2.021,0-3.573-0.45-4.658-1.353c-1.085-0.901-1.627-2.027-1.627-3.379c0-0.901,0.225-1.702,0.673-2.403
		c0.449-0.701,1.079-1.295,1.89-1.783s1.765-0.857,2.862-1.108c1.098-0.25,2.295-0.376,3.592-0.376c0.474,0,0.985,0.007,1.534,0.02
		s1.128,0.037,1.74,0.074c0.61,0.037,1.203,0.094,1.777,0.169l0.149,1.459c-0.499-0.075-1.042-0.131-1.628-0.169
		c-0.586-0.037-1.173-0.068-1.759-0.093c-0.586-0.025-1.116-0.038-1.59-0.038c-1.122,0-2.139,0.088-3.049,0.264
		c-0.911,0.175-1.69,0.444-2.339,0.809c-0.649,0.363-1.142,0.803-1.478,1.316c-0.337,0.514-0.506,1.108-0.506,1.786
		c0,0.552,0.106,1.034,0.318,1.447c0.212,0.414,0.518,0.765,0.917,1.053c0.398,0.288,0.885,0.501,1.459,0.639
		c0.573,0.139,1.234,0.207,1.983,0.207c1.122,0,2.132-0.168,3.03-0.506c0.897-0.338,1.665-0.825,2.301-1.463s1.116-1.419,1.44-2.345
		c0.324-0.925,0.486-1.963,0.486-3.113c0-1.825-0.212-3.27-0.636-4.332c-0.425-1.063-1.085-1.832-1.983-2.308
		c-0.897-0.475-2.095-0.712-3.592-0.712c-0.948,0-1.87,0.168-2.769,0.505c-0.897,0.337-1.746,0.854-2.544,1.553l-1.048-1.16
		c0.898-0.798,1.883-1.403,2.956-1.814c1.072-0.412,2.245-0.617,3.517-0.617c1.247,0,2.351,0.145,3.312,0.434
		c0.96,0.29,1.771,0.762,2.432,1.415c0.661,0.654,1.16,1.516,1.497,2.585s0.505,2.385,0.505,3.944v9.095h-1.945v-3.592
		c-0.275,0.648-0.655,1.216-1.142,1.702s-1.054,0.893-1.702,1.216c-0.649,0.325-1.341,0.568-2.076,0.729
		C309.9,492.074,309.132,492.156,308.334,492.156z"/>
	<path d="M325.171,474.758h1.945l-0.112,5.051l-0.336-0.262c0.149-0.798,0.442-1.516,0.879-2.151
		c0.436-0.636,0.973-1.179,1.608-1.628c0.637-0.449,1.328-0.791,2.077-1.028c0.748-0.237,1.509-0.355,2.282-0.355
		c0.947,0,1.896,0.162,2.844,0.486c0.947,0.324,1.745,0.798,2.395,1.422l-0.898,1.422l-0.149,0.299l-0.262-0.149
		c0-0.175-0.057-0.337-0.169-0.486c-0.112-0.15-0.33-0.337-0.654-0.562c-0.524-0.299-1.035-0.511-1.534-0.636
		s-1.035-0.188-1.608-0.188c-0.849,0-1.659,0.151-2.433,0.451c-0.773,0.301-1.459,0.733-2.058,1.297
		c-0.599,0.564-1.073,1.26-1.422,2.087c-0.35,0.827-0.523,1.754-0.523,2.781v9.248h-1.871V474.758z"/>
	<path d="M343.579,474.758h13.47v1.571h-13.47V474.758z M350.126,491.589c-0.724-0.377-1.26-0.963-1.609-1.757
		s-0.567-1.796-0.654-3.005c-0.088-1.21-0.106-2.646-0.057-4.31l0.486-12.396l1.946-0.265l0.336-0.038l0.038,0.266
		c-0.125,0.151-0.225,0.309-0.3,0.473c-0.074,0.164-0.125,0.46-0.149,0.889l-0.262,4.047l0.037,0.605l-0.299,6.619
		c-0.075,1.993-0.032,3.563,0.131,4.709c0.161,1.147,0.517,1.954,1.066,2.421c0.548,0.467,1.347,0.713,2.395,0.737
		c0.897,0,1.758-0.161,2.581-0.486c0.823-0.323,1.634-0.748,2.433-1.271l0.673,1.459c-0.923,0.624-1.877,1.092-2.862,1.403
		s-2.015,0.468-3.087,0.468C351.797,492.156,350.849,491.967,350.126,491.589z"/>
	<path d="M365.616,491.856v-1.534h5.201v-13.993h-4.939v-1.571h6.772v15.564h4.826v1.534H365.616z M371.565,471.166
		c-0.399,0-0.742-0.144-1.029-0.431c-0.287-0.286-0.43-0.63-0.43-1.029c0-0.424,0.137-0.778,0.411-1.065s0.623-0.431,1.048-0.431
		c0.398,0,0.748,0.149,1.048,0.449c0.299,0.299,0.448,0.648,0.448,1.047c0,0.399-0.149,0.743-0.448,1.029
		C372.313,471.022,371.963,471.166,371.565,471.166z"/>
	<path d="M389.299,491.856c-0.923-0.199-1.783-0.499-2.582-0.898c-0.798-0.398-1.559-0.91-2.282-1.533l1.123-1.609l0.225-0.262
		l0.224,0.149c0,0.149,0.044,0.313,0.132,0.486c0.087,0.175,0.28,0.399,0.579,0.674c0.674,0.499,1.472,0.911,2.395,1.234
		c0.923,0.325,1.996,0.486,3.218,0.486c1.247,0,2.283-0.131,3.105-0.394c0.823-0.263,1.446-0.638,1.871-1.126
		c0.424-0.487,0.636-1.069,0.636-1.745c0-0.449-0.112-0.843-0.336-1.181c-0.225-0.338-0.568-0.649-1.029-0.938
		c-0.462-0.288-1.042-0.55-1.74-0.787s-1.521-0.481-2.469-0.731c-1.397-0.325-2.613-0.719-3.648-1.182
		c-1.035-0.462-1.84-1.006-2.413-1.631c-0.574-0.625-0.86-1.362-0.86-2.213c0-0.849,0.262-1.593,0.785-2.229
		c0.524-0.638,1.291-1.138,2.302-1.501c1.01-0.362,2.238-0.543,3.685-0.543c0.898,0,1.69,0.056,2.376,0.168
		c0.687,0.112,1.315,0.269,1.89,0.468c0.573,0.2,1.098,0.455,1.571,0.767c0.474,0.313,0.936,0.681,1.385,1.104l-1.122,1.347
		l-0.225,0.262l-0.225-0.187c0.024-0.175-0.013-0.337-0.112-0.487c-0.101-0.149-0.3-0.36-0.599-0.636
		c-0.624-0.449-1.341-0.779-2.151-0.991s-1.702-0.318-2.676-0.318c-1.571,0-2.8,0.231-3.685,0.694
		c-0.886,0.464-1.329,1.12-1.329,1.971c0,0.551,0.206,1.038,0.618,1.463c0.411,0.425,1.053,0.818,1.927,1.182
		c0.873,0.362,1.995,0.706,3.367,1.03c1.496,0.351,2.725,0.744,3.686,1.182c0.96,0.438,1.677,0.956,2.151,1.556
		c0.474,0.601,0.711,1.313,0.711,2.137c0,0.95-0.256,1.813-0.768,2.587c-0.511,0.775-1.322,1.382-2.432,1.819
		c-1.11,0.437-2.551,0.656-4.321,0.656C391.208,492.156,390.222,492.055,389.299,491.856z"/>
	<path d="M411.224,492.156c-2.021,0-3.573-0.45-4.658-1.353c-1.085-0.901-1.627-2.027-1.627-3.379c0-0.901,0.225-1.702,0.673-2.403
		c0.449-0.701,1.079-1.295,1.89-1.783s1.765-0.857,2.862-1.108c1.098-0.25,2.295-0.376,3.592-0.376c0.474,0,0.985,0.007,1.534,0.02
		s1.128,0.037,1.74,0.074c0.61,0.037,1.203,0.094,1.777,0.169l0.149,1.459c-0.499-0.075-1.042-0.131-1.628-0.169
		c-0.586-0.037-1.173-0.068-1.759-0.093c-0.586-0.025-1.116-0.038-1.59-0.038c-1.122,0-2.139,0.088-3.049,0.264
		c-0.911,0.175-1.69,0.444-2.339,0.809c-0.649,0.363-1.142,0.803-1.478,1.316c-0.337,0.514-0.506,1.108-0.506,1.786
		c0,0.552,0.106,1.034,0.318,1.447c0.212,0.414,0.518,0.765,0.917,1.053c0.398,0.288,0.885,0.501,1.459,0.639
		c0.573,0.139,1.234,0.207,1.983,0.207c1.122,0,2.132-0.168,3.03-0.506c0.897-0.338,1.665-0.825,2.301-1.463s1.116-1.419,1.44-2.345
		c0.324-0.925,0.486-1.963,0.486-3.113c0-1.825-0.212-3.27-0.636-4.332c-0.425-1.063-1.085-1.832-1.983-2.308
		c-0.897-0.475-2.095-0.712-3.592-0.712c-0.948,0-1.87,0.168-2.769,0.505c-0.897,0.337-1.746,0.854-2.544,1.553l-1.048-1.16
		c0.898-0.798,1.883-1.403,2.956-1.814c1.072-0.412,2.245-0.617,3.517-0.617c1.247,0,2.351,0.145,3.312,0.434
		c0.96,0.29,1.771,0.762,2.432,1.415c0.661,0.654,1.16,1.516,1.497,2.585s0.505,2.385,0.505,3.944v9.095h-1.945v-3.592
		c-0.275,0.648-0.655,1.216-1.142,1.702s-1.054,0.893-1.702,1.216c-0.649,0.325-1.341,0.568-2.076,0.729
		C412.79,492.074,412.022,492.156,411.224,492.156z"/>
	<path d="M426.19,491.856v-17.099h1.834v3.592c0.424-0.823,0.979-1.527,1.665-2.114c0.686-0.586,1.478-1.041,2.376-1.365
		c0.897-0.324,1.87-0.486,2.918-0.486s1.995,0.22,2.844,0.66c0.848,0.44,1.527,1.188,2.039,2.246
		c0.511,1.057,0.767,2.49,0.767,4.302v10.265h-1.796v-10.198c0-1.41-0.181-2.524-0.542-3.343c-0.362-0.819-0.867-1.404-1.516-1.757
		s-1.447-0.529-2.395-0.529c-0.849,0-1.652,0.152-2.413,0.454c-0.762,0.303-1.435,0.724-2.021,1.265
		c-0.587,0.542-1.055,1.178-1.403,1.908c-0.35,0.73-0.523,1.523-0.523,2.379v9.821H426.19z"/>
	<path d="M453.465,479.808c-0.424,0-0.811-0.162-1.159-0.486c-0.35-0.324-0.524-0.698-0.524-1.122c0-0.474,0.175-0.867,0.524-1.179
		c0.349-0.312,0.735-0.468,1.159-0.468c0.449,0,0.842,0.162,1.179,0.486s0.506,0.711,0.506,1.16c0,0.424-0.169,0.798-0.506,1.122
		S453.915,479.808,453.465,479.808z M453.465,492.156c-0.448,0-0.842-0.156-1.178-0.468c-0.337-0.312-0.506-0.692-0.506-1.142
		s0.175-0.835,0.524-1.16c0.349-0.323,0.735-0.486,1.159-0.486c0.449,0,0.842,0.163,1.179,0.486c0.337,0.325,0.506,0.711,0.506,1.16
		c0,0.425-0.163,0.799-0.487,1.122C454.338,491.993,453.939,492.156,453.465,492.156z"/>
	<path d="M469.105,493.427l-1.608-0.785l12.384-25.667l1.609,0.823L469.105,493.427z"/>
	<path d="M494.808,493.615v-2.282c-0.973-0.075-1.896-0.23-2.769-0.468c-0.874-0.237-1.672-0.567-2.395-0.992
		c-0.724-0.424-1.41-0.935-2.058-1.533l1.347-1.685c0.1,0.075,0.143,0.194,0.131,0.355c-0.013,0.163,0.019,0.294,0.094,0.394
		c0.448,0.474,0.973,0.873,1.571,1.197s1.253,0.586,1.964,0.785c0.711,0.2,1.416,0.337,2.114,0.412v-9.092
		c-1.347-0.424-2.501-0.886-3.461-1.385c-0.961-0.499-1.696-1.091-2.207-1.777c-0.512-0.686-0.768-1.478-0.768-2.376
		c0-0.947,0.268-1.808,0.805-2.581c0.536-0.773,1.284-1.416,2.245-1.928c0.96-0.511,2.089-0.816,3.386-0.916v-2.245h1.908
		c0.024,0.025,0.037,0.044,0.037,0.056c0,0.014,0,0.032,0,0.057c0,0.05-0.044,0.131-0.131,0.243
		c-0.088,0.112-0.144,0.256-0.168,0.431v1.421c0.873,0.075,1.684,0.231,2.432,0.468c0.748,0.237,1.44,0.562,2.077,0.974
		c0.636,0.411,1.19,0.892,1.664,1.44l-1.197,1.533c-0.149-0.049-0.224-0.161-0.224-0.336s-0.075-0.324-0.225-0.449
		c-0.225-0.249-0.493-0.486-0.805-0.711c-0.313-0.225-0.661-0.431-1.048-0.617c-0.387-0.188-0.805-0.343-1.253-0.468
		c-0.449-0.125-0.924-0.212-1.422-0.262v8.156c1.472,0.399,2.712,0.849,3.723,1.347c1.01,0.499,1.789,1.099,2.339,1.796
		c0.548,0.699,0.822,1.571,0.822,2.619c0,0.948-0.268,1.865-0.804,2.75c-0.537,0.886-1.316,1.628-2.339,2.227
		c-1.023,0.599-2.27,0.96-3.741,1.085v2.357H494.808z M494.808,478.911v-7.671c-0.998,0.101-1.847,0.331-2.544,0.692
		c-0.699,0.362-1.223,0.792-1.571,1.291c-0.35,0.499-0.524,1.048-0.524,1.646c0,0.648,0.169,1.203,0.505,1.665
		c0.337,0.462,0.854,0.879,1.553,1.253S493.785,478.536,494.808,478.911z M496.455,489.723c0.947-0.124,1.808-0.374,2.581-0.748
		s1.391-0.873,1.853-1.497c0.461-0.623,0.692-1.334,0.692-2.133c0-0.748-0.206-1.371-0.617-1.87
		c-0.412-0.499-0.998-0.923-1.759-1.272c-0.762-0.349-1.678-0.686-2.75-1.01V489.723z"/>
</g>
<g>
	<path fill="#EF3B2D" d="M206.524,483.713c0,7.53-6.104,13.635-13.634,13.635h-90.893c-7.53,0-13.634-6.104-13.634-13.635V392.82
		c0-7.53,6.104-13.634,13.634-13.634h90.893c7.53,0,13.634,6.104,13.634,13.634V483.713z"/>
	<g>
		<path fill="#FFFFFF" d="M105.379,467.991v-13.521l28.007-17.491l-27.899-15.129v-13.306l41.956,24.681v7.297L105.379,467.991z"/>
		<path fill="#FFFFFF" d="M147.443,467.991v-11.376h42.708v11.376H147.443z"/>
	</g>
</g>
</svg>
